<svg width="192" height="192" viewBox="0 0 192 192" fill="none" xmlns="http://www.w3.org/2000/svg">
<g filter="url(#filter0_d_503_3066)">
<path d="M4 60C4 26.8629 30.8629 0 64 0H128C161.137 0 188 26.8629 188 60V124C188 157.137 161.137 184 128 184H64C30.8629 184 4 157.137 4 124V60Z" fill="#D9D9D9"/>
<path d="M32 29H57V152H32V29Z" fill="url(#paint0_linear_503_3066)"/>
<path d="M130 29H155V152H130V29Z" fill="url(#paint1_linear_503_3066)"/>
<path d="M155.041 79.2024L155 104.202L32 104L32.0411 79L155.041 79.2024Z" fill="url(#paint2_linear_503_3066)"/>
</g>
<defs>
<filter id="filter0_d_503_3066" x="0" y="0" width="192" height="192" filterUnits="userSpaceOnUse" color-interpolation-filters="sRGB">
<feFlood flood-opacity="0" result="BackgroundImageFix"/>
<feColorMatrix in="SourceAlpha" type="matrix" values="0 0 0 0 0 0 0 0 0 0 0 0 0 0 0 0 0 0 127 0" result="hardAlpha"/>
<feOffset dy="4"/>
<feGaussianBlur stdDeviation="2"/>
<feComposite in2="hardAlpha" operator="out"/>
<feColorMatrix type="matrix" values="0 0 0 0 0 0 0 0 0 0 0 0 0 0 0 0 0 0 0.25 0"/>
<feBlend mode="normal" in2="BackgroundImageFix" result="effect1_dropShadow_503_3066"/>
<feBlend mode="normal" in="SourceGraphic" in2="effect1_dropShadow_503_3066" result="shape"/>
</filter>
<linearGradient id="paint0_linear_503_3066" x1="96" y1="0" x2="96" y2="184" gradientUnits="userSpaceOnUse">
<stop stop-color="#61E5F7"/>
<stop offset="0.291667" stop-color="#2B73A7"/>
<stop offset="1" stop-color="#0E2B58"/>
</linearGradient>
<linearGradient id="paint1_linear_503_3066" x1="96" y1="0" x2="96" y2="184" gradientUnits="userSpaceOnUse">
<stop stop-color="#61E5F7"/>
<stop offset="0.291667" stop-color="#2B73A7"/>
<stop offset="1" stop-color="#0E2B58"/>
</linearGradient>
<linearGradient id="paint2_linear_503_3066" x1="81" y1="75" x2="81" y2="104" gradientUnits="userSpaceOnUse">
<stop stop-color="#61E5F7"/>
<stop offset="0.291667" stop-color="#2B73A7"/>
<stop offset="1" stop-color="#0E2B58"/>
</linearGradient>
</defs>
</svg>
